# xmcd
# 
# Track frame offsets:
#     150
#     15615
#     31830
#     42127
#     57920
#     71727
#     88420
#     103657
#     118510
#     133082
#     144102
#     162895
# 
# Disc length: 2434
# 
# Revision: 5
# Processed by: cddbd v1.5.2PL0 Copyright (c) Steve Scherf et al.
# Submitted via: BonkEnc v1.0.8
# 
DISCID=9e09800c
DTITLE=Milionario and José Rico - De Cara com a Saudade
DYEAR=1996
DGENRE=Sertanejo
TTITLE0=Amor da minha vida
TTITLE1=Mãe Natureza
TTITLE2=Amigo
TTITLE3=Aguenta Peão
TTITLE4=Velha canoa
TTITLE5=Irmão
TTITLE6=Paixão Anonima
TTITLE7=Castelo
TTITLE8=Crise
TTITLE9=Eu, você e ela
TTITLE10=De cara com a saudade
TTITLE11=Sublime miragem
EXTD=
EXTT0=
EXTT1=
EXTT2=
EXTT3=
EXTT4=
EXTT5=
EXTT6=
EXTT7=
EXTT8=
EXTT9=
EXTT10=
EXTT11=
PLAYORDER=
